<svg width="18" height="18" viewBox="0 0 18 18" fill="none" xmlns="http://www.w3.org/2000/svg">
<g clip-path="url(#clip0_574_192)">
<path d="M11.025 4.72496C10.8876 4.86516 10.8106 5.05365 10.8106 5.24996C10.8106 5.44628 10.8876 5.63476 11.025 5.77496L12.225 6.97496C12.3652 7.11238 12.5537 7.18935 12.75 7.18935C12.9463 7.18935 13.1348 7.11238 13.275 6.97496L15.6045 4.64621C15.8445 4.40471 16.2517 4.48121 16.3417 4.80971C16.5683 5.63387 16.5555 6.50551 16.3048 7.32266C16.0541 8.1398 15.5758 8.86864 14.926 9.42389C14.2762 9.97914 13.4817 10.3378 12.6354 10.458C11.7892 10.5782 10.9262 10.4549 10.1475 10.1025L4.21498 16.035C3.91662 16.3332 3.51198 16.5008 3.09009 16.5007C2.66821 16.5006 2.26363 16.333 1.96536 16.0346C1.66709 15.7362 1.49956 15.3316 1.49963 14.9097C1.4997 14.4878 1.66737 14.0832 1.96573 13.785L7.89823 7.85246C7.54584 7.07375 7.42251 6.21077 7.54268 5.36452C7.66286 4.51827 8.02155 3.72375 8.5768 3.07392C9.13206 2.4241 9.8609 1.94584 10.678 1.69513C11.4952 1.44442 12.3668 1.43161 13.191 1.65821C13.5195 1.74821 13.596 2.15471 13.3552 2.39621L11.025 4.72496Z" stroke="white" stroke-width="1.5" stroke-linecap="round" stroke-linejoin="round"/>
</g>
<defs>
<clipPath id="clip0_574_192">
<rect width="18" height="18" fill="white"/>
</clipPath>
</defs>
</svg>
