<svg width="28" height="28" viewBox="0 0 28 28" fill="none" xmlns="http://www.w3.org/2000/svg">
<path opacity="0.15" fill-rule="evenodd" clip-rule="evenodd" d="M15.96 4.47997L18.2 9.09997L23.38 9.79997C25.2 10.08 25.9 12.18 24.5 13.44L20.72 17.08L21.56 22.26C21.84 23.94 20.02 25.34 18.48 24.5L14 22.12L9.37997 24.5C7.83997 25.34 6.01997 23.94 6.29997 22.26L7.13997 17.08L3.49997 13.58C2.23997 12.32 2.93997 10.08 4.61997 9.79997L9.79997 9.09997L12.04 4.47997C12.88 2.79997 15.12 2.79997 15.96 4.47997Z" fill="white"/>
<path d="M15.96 4.47997L18.2 9.09997L23.38 9.79997C25.2 10.08 25.9 12.18 24.5 13.44L20.72 17.08L21.56 22.26C21.84 23.94 20.02 25.34 18.48 24.5L14 22.12L9.37997 24.5C7.83997 25.34 6.01997 23.94 6.29997 22.26L7.13997 17.08L3.49997 13.58C2.23997 12.32 2.93997 10.08 4.61997 9.79997L9.79997 9.09997L12.04 4.47997C12.88 2.79997 15.12 2.79997 15.96 4.47997Z" stroke="#8C8C8C" stroke-miterlimit="10" stroke-linejoin="round"/>
</svg>
