<svg width="27" height="27" viewBox="0 0 27 27" fill="none" xmlns="http://www.w3.org/2000/svg">
<path d="M16.875 23.625V14.625C16.875 14.3266 16.7565 14.0405 16.5455 13.8295C16.3345 13.6185 16.0484 13.5 15.75 13.5H11.25C10.9516 13.5 10.6655 13.6185 10.4545 13.8295C10.2435 14.0405 10.125 14.3266 10.125 14.625V23.625" stroke="white" stroke-width="2.25" stroke-linecap="round" stroke-linejoin="round"/>
<path d="M3.375 11.25C3.37492 10.9227 3.44625 10.5993 3.58401 10.3024C3.72177 10.0055 3.92265 9.74226 4.17263 9.53099L12.0476 2.78099C12.4537 2.43776 12.9683 2.24945 13.5 2.24945C14.0317 2.24945 14.5463 2.43776 14.9524 2.78099L22.8274 9.53099C23.0774 9.74226 23.2782 10.0055 23.416 10.3024C23.5538 10.5993 23.6251 10.9227 23.625 11.25V21.375C23.625 21.9717 23.3879 22.544 22.966 22.966C22.544 23.3879 21.9717 23.625 21.375 23.625H5.625C5.02826 23.625 4.45597 23.3879 4.03401 22.966C3.61205 22.544 3.375 21.9717 3.375 21.375V11.25Z" stroke="white" stroke-width="2.25" stroke-linecap="round" stroke-linejoin="round"/>
</svg>
