<svg width="18" height="18" viewBox="0 0 18 18" fill="none" xmlns="http://www.w3.org/2000/svg">
<path d="M6.75 12.75H5.25C4.25544 12.75 3.30161 12.3549 2.59835 11.6517C1.89509 10.9484 1.5 9.99456 1.5 9C1.5 8.00544 1.89509 7.05161 2.59835 6.34835C3.30161 5.64509 4.25544 5.25 5.25 5.25H6.75M11.25 5.25H12.75C13.7446 5.25 14.6984 5.64509 15.4017 6.34835C16.1049 7.05161 16.5 8.00544 16.5 9C16.5 9.99456 16.1049 10.9484 15.4017 11.6517C14.6984 12.3549 13.7446 12.75 12.75 12.75H11.25M6 9H12" stroke="white" stroke-width="1.5" stroke-linecap="round" stroke-linejoin="round"/>
</svg>
