<svg width="28" height="28" viewBox="0 0 28 28" fill="none" xmlns="http://www.w3.org/2000/svg">
<path opacity="0.15" fill-rule="evenodd" clip-rule="evenodd" d="M25.2 11.48C24.5 18.9 16.1 24.64 14 24.64C11.9 24.64 3.50005 18.76 2.80005 11.48V10.64C2.80005 7.13995 5.74005 4.19995 9.38005 4.19995C11.2 4.19995 12.88 4.89995 14 6.15995C15.12 4.89995 16.8 4.19995 18.62 4.19995C22.26 4.19995 25.2 7.13995 25.2 10.64V11.48Z" fill="white"/>
<path d="M25.2 11.48C24.5 18.9 16.1 24.64 14 24.64C11.9 24.64 3.50005 18.76 2.80005 11.48V10.64C2.80005 7.13995 5.74005 4.19995 9.38005 4.19995C11.2 4.19995 12.88 4.89995 14 6.15995C15.12 4.89995 16.8 4.19995 18.62 4.19995C22.26 4.19995 25.2 7.13995 25.2 10.64V11.48Z" stroke="#8C8C8C" stroke-miterlimit="10" stroke-linejoin="round"/>
</svg>
