<svg width="27" height="27" viewBox="0 0 27 27" fill="none" xmlns="http://www.w3.org/2000/svg">
<g clip-path="url(#clip0_23_26)">
<path d="M6.75 15.75L8.4375 12.4875C8.62096 12.1231 8.90001 11.8155 9.24481 11.5976C9.58961 11.3796 9.98719 11.2594 10.395 11.25H22.5C22.8437 11.2494 23.183 11.3275 23.4918 11.4785C23.8007 11.6294 24.0708 11.849 24.2815 12.1206C24.4922 12.3921 24.638 12.7084 24.7075 13.045C24.777 13.3816 24.7684 13.7297 24.6825 14.0625L22.95 20.8125C22.8247 21.298 22.5407 21.7277 22.1433 22.0334C21.7458 22.3392 21.2577 22.5034 20.7563 22.5H4.5C3.90326 22.5 3.33097 22.2629 2.90901 21.841C2.48705 21.419 2.25 20.8467 2.25 20.25V5.62499C2.25 5.02825 2.48705 4.45595 2.90901 4.034C3.33097 3.61204 3.90326 3.37499 4.5 3.37499H8.8875C9.2638 3.3713 9.63501 3.46205 9.96716 3.63893C10.2993 3.81582 10.5818 4.07319 10.7888 4.38749L11.7 5.73749C11.9049 6.04858 12.1838 6.30395 12.5117 6.48066C12.8396 6.65738 13.2063 6.74992 13.5787 6.74999H20.25C20.8467 6.74999 21.419 6.98704 21.841 7.409C22.2629 7.83095 22.5 8.40325 22.5 8.99999V11.25" fill="white"/>
<path d="M6.75 15.75L8.4375 12.4875C8.62096 12.1231 8.90001 11.8155 9.24481 11.5976C9.58961 11.3796 9.98719 11.2594 10.395 11.25H22.5M22.5 11.25C22.8437 11.2494 23.183 11.3275 23.4918 11.4785C23.8007 11.6294 24.0708 11.849 24.2815 12.1206C24.4922 12.3921 24.638 12.7084 24.7075 13.045C24.777 13.3816 24.7684 13.7297 24.6825 14.0625L22.95 20.8125C22.8247 21.298 22.5407 21.7277 22.1433 22.0334C21.7458 22.3392 21.2577 22.5034 20.7563 22.5H4.5C3.90326 22.5 3.33097 22.2629 2.90901 21.841C2.48705 21.419 2.25 20.8467 2.25 20.25V5.62499C2.25 5.02825 2.48705 4.45595 2.90901 4.034C3.33097 3.61204 3.90326 3.37499 4.5 3.37499H8.8875C9.2638 3.3713 9.63501 3.46205 9.96716 3.63893C10.2993 3.81582 10.5818 4.07319 10.7888 4.38749L11.7 5.73749C11.9049 6.04858 12.1838 6.30395 12.5117 6.48066C12.8396 6.65738 13.2063 6.74992 13.5787 6.74999H20.25C20.8467 6.74999 21.419 6.98704 21.841 7.409C22.2629 7.83095 22.5 8.40325 22.5 8.99999V11.25Z" stroke="white" stroke-width="2.25" stroke-linecap="round" stroke-linejoin="round"/>
<path d="M6.75 15.75L8.4375 12.4875C8.62096 12.1232 8.90001 11.8155 9.24481 11.5976C9.58961 11.3796 9.98719 11.2594 10.395 11.25H26.5" stroke="#1C1C1C" stroke-width="2.25" stroke-linecap="round" stroke-linejoin="round"/>
</g>
<defs>
<clipPath id="clip0_23_26">
<rect width="27" height="27" fill="white"/>
</clipPath>
</defs>
</svg>
