<svg width="20" height="20" viewBox="0 0 20 20" fill="none" xmlns="http://www.w3.org/2000/svg">
<path fill-rule="evenodd" clip-rule="evenodd" d="M10.0445 10.5623C10.1702 10.5605 10.3087 10.5638 10.4584 10.5749C10.8305 10.6071 11.272 10.6945 11.7308 10.8762C11.8435 10.9252 11.9613 10.9727 12.0755 11.0328C12.2113 11.1062 12.2438 11.102 12.4035 11.2097C12.6658 11.3768 12.8588 11.525 13.0791 11.7102C13.4932 12.0779 13.848 12.5289 14.1095 13.0056C14.3653 13.4859 14.5279 13.9864 14.6117 14.4331C14.6955 14.8756 14.7042 15.2839 14.7028 15.5188C14.7057 15.6418 14.6775 15.7935 14.6739 15.8711C14.6645 15.9564 14.6601 16.0018 14.6601 16.0018C14.6074 16.4996 14.9817 16.9449 15.4962 16.9952C15.9268 17.0379 16.3185 16.7904 16.4659 16.4185C16.4659 16.4185 16.4825 16.3752 16.5143 16.2948C16.5461 16.2053 16.5945 16.1172 16.6516 15.9263C16.7751 15.5363 16.9023 15.0371 16.9673 14.3884C17.0302 13.7445 17.0121 12.9714 16.8394 12.15C16.6617 11.332 16.3228 10.4694 15.8249 9.67803C15.5778 9.29494 15.2758 8.89157 14.9911 8.57559C14.8784 8.44067 14.6349 8.20019 14.4831 8.06177C14.314 7.90028 14.1348 7.75348 13.9571 7.60807C13.2359 7.04112 12.4548 6.62308 11.7467 6.34555C11.0813 6.08688 10.4845 5.94476 10.0445 5.86518V4.51054C10.0445 3.89781 9.66689 3.35023 9.08236 3.11609C8.49685 2.88101 7.82937 3.00941 7.38145 3.44275L3.45757 7.23995C3.16286 7.52507 2.99989 7.90461 2.99989 8.3068C2.99989 8.70993 3.16286 9.08946 3.45757 9.37364L7.38145 13.1718C7.82937 13.6042 8.49685 13.7335 9.08236 13.4984C9.66689 13.2634 10.0445 12.7158 10.0445 12.104V10.5623Z" fill="#93C0FF"/>
</svg>
