<svg width="24" height="24" viewBox="0 0 24 24" fill="none" xmlns="http://www.w3.org/2000/svg">
<path fill-rule="evenodd" clip-rule="evenodd" d="M4.55628 17.0868C2.93028 14.4192 2.79708 10.86 4.23108 8.03882C5.28031 5.90091 7.04471 4.19765 9.21828 3.22442C9.8356 2.93912 10.4806 2.71796 11.1431 2.56442L11.8151 2.42042C12.0515 2.37007 12.2982 2.41436 12.5024 2.5438C12.7065 2.67323 12.8518 2.87751 12.9071 3.11282C12.9322 3.2297 12.934 3.3504 12.9122 3.46796C12.8905 3.58552 12.8457 3.69761 12.7804 3.79779C12.7152 3.89796 12.6308 3.98422 12.532 4.05161C12.4333 4.119 12.3221 4.16617 12.2051 4.19042L11.5511 4.33082C11.0098 4.45743 10.483 4.6396 9.97908 4.87442C8.19556 5.6826 6.74704 7.08362 5.87988 8.83922C4.92348 10.7184 4.63908 13.7064 6.14388 16.1712C7.50588 18.5472 10.2959 20.0028 12.9431 19.758C15.4475 19.578 17.7431 17.9112 18.5495 15.7044C19.3667 13.6284 18.8243 11.502 17.9255 10.3044C16.8455 8.82722 15.5003 8.37242 14.9723 8.24642C14.8931 8.22242 13.0439 7.66682 11.4107 8.48522C10.7087 8.82122 9.79908 9.57962 9.31068 10.7172C8.78628 11.8932 8.92188 13.4052 9.63468 14.4096C10.3523 15.486 11.7035 16.0968 12.8675 15.8892C14.0243 15.7068 14.8079 14.8452 14.9939 14.0892C15.2111 13.2756 14.8763 12.588 14.6159 12.3408C14.1719 11.9028 13.7879 11.8956 13.7723 11.8944C13.6636 11.8888 13.5546 11.8944 13.4471 11.9112C13.2395 11.9868 12.9455 12.1536 12.8591 12.3276C12.8447 12.3564 12.8051 12.4356 12.8795 12.6324C12.9216 12.7443 12.9411 12.8633 12.9369 12.9828C12.9327 13.1022 12.9049 13.2196 12.855 13.3282C12.8051 13.4368 12.7342 13.5344 12.6463 13.6154C12.5584 13.6964 12.4554 13.7591 12.3431 13.8C12.1161 13.885 11.8647 13.8771 11.6435 13.778C11.4222 13.679 11.2489 13.4968 11.1611 13.2708C10.8659 12.4944 11.0291 11.886 11.2175 11.514C11.7119 10.542 12.8567 10.1904 12.9863 10.1532C13.0461 10.1357 13.1077 10.1244 13.1699 10.1196C13.2971 10.1004 13.5191 10.0704 13.8203 10.0812C14.5103 10.0908 15.2963 10.4508 15.8999 11.046C16.6115 11.718 17.1683 13.068 16.7735 14.5344C16.3871 16.1052 14.9063 17.4024 13.1771 17.6748C11.3171 18.006 9.22308 17.0892 8.11788 15.4284C7.05108 13.9296 6.84708 11.7384 7.62708 9.99962C8.21707 8.63718 9.2682 7.52615 10.5959 6.86162C12.9011 5.70962 15.3659 6.47042 15.4691 6.50162C16.1327 6.65882 17.9771 7.27562 19.4087 9.23402C20.5103 10.7076 21.4043 13.458 20.2691 16.3392C19.2323 19.1784 16.2803 21.3348 13.0979 21.564C12.8483 21.588 12.5963 21.6 12.3443 21.6C9.25548 21.6 6.12708 19.8192 4.55748 17.0868H4.55628Z" fill="white"/>
</svg>
