<svg width="24" height="24" viewBox="0 0 24 24" fill="none" xmlns="http://www.w3.org/2000/svg">
<path d="M20.8801 9.84006C21.7201 11.0401 21.8401 13.0801 20.8801 14.2801C20.8801 14.2801 18.1201 19.5601 12.0001 19.5601C5.88008 19.5601 3.12008 14.4001 3.12008 14.4001C2.28008 13.2001 2.16008 11.1601 3.12008 9.96006C3.12008 9.84006 5.88008 4.56006 12.0001 4.56006C18.1201 4.56006 20.8801 9.84006 20.8801 9.84006ZM12.0001 17.6401C15.0001 17.6401 17.5201 15.2401 17.5201 12.1201C17.5201 9.00006 15.1201 6.60006 12.0001 6.60006C8.88008 6.60006 6.48008 9.00006 6.48008 12.1201C6.48008 15.2401 9.00008 17.6401 12.0001 17.6401Z" fill="white"/>
<path d="M11.8801 14.8801C13.4044 14.8801 14.6401 13.6444 14.6401 12.1201C14.6401 10.5958 13.4044 9.36011 11.8801 9.36011C10.3558 9.36011 9.12012 10.5958 9.12012 12.1201C9.12012 13.6444 10.3558 14.8801 11.8801 14.8801Z" fill="white"/>
</svg>
